<svg width="108" height="86" viewBox="0 0 108 86" fill="none" xmlns="http://www.w3.org/2000/svg">
<path d="M106.871 28.6987L79.8703 1.69815C78.3638 0.192036 75.9215 0.192488 74.4154 1.69906C73.6924 2.42228 73.2863 3.40271 73.2861 4.42539V15.997H46.2855C44.1552 15.997 42.4283 17.7239 42.4283 19.8543C42.4283 21.9846 44.1552 23.7116 46.2855 23.7116H77.1433C79.2737 23.7116 81.0006 21.9846 81.0006 19.8543V13.7365L98.6898 31.4257L81.0006 49.1149V42.9973C81.0006 40.8669 79.2737 39.14 77.1433 39.14H34.7139V27.5684C34.7135 25.438 32.9861 23.7116 30.856 23.712C29.8335 23.7122 28.8529 24.1184 28.1296 24.8414L1.12936 51.8419C-0.376534 53.3482 -0.376534 55.7898 1.12936 57.2959L28.1299 84.2964C28.8531 85.0199 29.834 85.4265 30.8569 85.4267C31.3638 85.4283 31.8662 85.3286 32.3341 85.1336C33.7751 84.536 34.7144 83.1295 34.7139 81.5694V69.9978H61.7144C63.8448 69.9978 65.5717 68.2709 65.5717 66.1405C65.5717 64.0102 63.8448 62.2832 61.7144 62.2832H30.8569C28.7265 62.2832 26.9996 64.0102 26.9996 66.1405V72.2581L9.3104 54.5689L26.9996 36.8797V42.9973C26.9996 45.1276 28.7265 46.8546 30.8569 46.8546H73.2861V58.4262C73.2865 60.5565 75.0139 62.283 77.144 62.2826C78.1665 62.2823 79.1471 61.8762 79.8703 61.1532L106.871 34.1527C108.377 32.6463 108.377 30.2048 106.871 28.6987Z" fill="black"/>
</svg>
