<svg width="87" height="88" viewBox="0 0 87 88" fill="none" xmlns="http://www.w3.org/2000/svg">
<g clip-path="url(#clip0)">
<path d="M33.531 29.9979H6.34353C2.84553 29.9979 0 27.1524 0 23.6537V7.34121C0 3.84321 2.84553 0.997681 6.34353 0.997681H33.531C37.0297 0.997681 39.8752 3.84321 39.8752 7.34121V23.6537C39.8752 27.1524 37.0297 29.9979 33.531 29.9979ZM6.34353 6.43518C5.84372 6.43518 5.4375 6.8414 5.4375 7.34121V23.6537C5.4375 24.1542 5.84372 24.5604 6.34353 24.5604H33.531C34.0315 24.5604 34.4377 24.1542 34.4377 23.6537V7.34121C34.4377 6.8414 34.0315 6.43518 33.531 6.43518H6.34353Z" fill="black"/>
<path d="M33.531 87.9977H6.34353C2.84553 87.9977 0 85.1521 0 81.6541V43.5916C0 40.093 2.84553 37.2474 6.34353 37.2474H33.531C37.0297 37.2474 39.8752 40.093 39.8752 43.5916V81.6541C39.8752 85.1521 37.0297 87.9977 33.531 87.9977ZM6.34353 42.6849C5.84372 42.6849 5.4375 43.0912 5.4375 43.5916V81.6541C5.4375 82.1539 5.84372 82.5602 6.34353 82.5602H33.531C34.0315 82.5602 34.4377 82.1539 34.4377 81.6541V43.5916C34.4377 43.0912 34.0315 42.6849 33.531 42.6849H6.34353Z" fill="black"/>
<path d="M80.6564 87.9977H53.4689C49.9703 87.9977 47.1248 85.1521 47.1248 81.6541V65.3416C47.1248 61.843 49.9703 58.9974 53.4689 58.9974H80.6564C84.1544 58.9974 87 61.843 87 65.3416V81.6541C87 85.1521 84.1544 87.9977 80.6564 87.9977ZM53.4689 64.4349C52.9685 64.4349 52.5623 64.8412 52.5623 65.3416V81.6541C52.5623 82.1539 52.9685 82.5602 53.4689 82.5602H80.6564C81.1563 82.5602 81.5625 82.1539 81.5625 81.6541V65.3416C81.5625 64.8412 81.1563 64.4349 80.6564 64.4349H53.4689Z" fill="black"/>
<path d="M80.6564 51.7479H53.4689C49.9703 51.7479 47.1248 48.9024 47.1248 45.4037V7.34121C47.1248 3.84321 49.9703 0.997681 53.4689 0.997681H80.6564C84.1544 0.997681 87 3.84321 87 7.34121V45.4037C87 48.9024 84.1544 51.7479 80.6564 51.7479ZM53.4689 6.43518C52.9685 6.43518 52.5623 6.8414 52.5623 7.34121V45.4037C52.5623 45.9042 52.9685 46.3104 53.4689 46.3104H80.6564C81.1563 46.3104 81.5625 45.9042 81.5625 45.4037V7.34121C81.5625 6.8414 81.1563 6.43518 80.6564 6.43518H53.4689Z" fill="black"/>
</g>
<defs>
<clipPath id="clip0">
<rect width="87" height="87" fill="white" transform="translate(0 0.997681)"/>
</clipPath>
</defs>
</svg>
