<svg width="104" height="105" viewBox="0 0 104 105" fill="none" xmlns="http://www.w3.org/2000/svg">
<path d="M95.2737 12.8114C83.2601 0.72996 63.4333 1.33053 51.9951 13.8887C40.556 1.33097 20.7301 0.729738 8.71648 12.8116C-3.23002 24.7088 -2.82304 44.2998 9.48598 55.7826C3.18866 61.797 6.7963 72.6046 15.3677 73.6581C14.8542 79.5274 19.8497 84.9096 25.7587 84.8098C26.121 91.2709 32.6059 95.8959 38.8232 94.1884C40.863 101.886 50.6684 104.516 56.2938 98.851C59.4887 95.6752 62.0294 93.6725 62.1915 88.8626C67.4706 88.7155 72.0382 84.0859 72.1187 78.8099C77.4484 78.7276 82.0921 74.0824 82.1741 68.7542C87.7032 68.6702 92.4974 63.6798 92.24 58.0462L95.2733 55.0131C106.909 43.378 106.909 24.4463 95.2737 12.8114ZM14.0596 60.639L16.9086 57.7899C17.645 57.0535 18.6119 56.6855 19.5792 56.6855C22.8959 56.6635 24.6271 60.7641 22.2493 63.1306L19.4003 65.9796C15.7124 69.3748 10.664 64.3284 14.0596 60.639ZM22.0037 74.3707C22.0037 73.3618 22.3967 72.4134 23.1099 71.7001L25.9605 68.8498C26.6736 68.1374 27.6213 67.7451 28.6293 67.7451C31.9742 67.7393 33.6697 71.8304 31.2997 74.192L28.7858 76.7059C28.0174 77.5767 26.9619 78.166 25.7801 78.1471C23.7505 78.1888 21.9617 76.4007 22.0037 74.3707ZM33.5008 86.7613C32.0358 85.3557 32.0358 82.8265 33.5008 81.4209L36.0146 78.9068C37.4803 77.1669 40.0533 76.9404 41.6907 78.5716C43.163 80.0441 43.163 82.4395 41.6907 83.9123L38.8415 86.7615C37.3692 88.2345 34.9733 88.2343 33.5008 86.7613ZM54.4281 91.2869L51.579 94.136C50.8658 94.8492 49.9173 95.2422 48.9087 95.2422C47.8998 95.2422 46.9514 94.8492 46.2381 94.136C44.7734 92.7301 44.7727 90.2009 46.2383 88.7953L49.0872 85.9462C50.5595 84.4737 52.9555 84.4737 54.4278 85.946C55.893 87.3519 55.8933 89.8811 54.4281 91.2869ZM84.4697 60.9939C83.0638 62.4589 80.5346 62.4591 79.129 60.9939L64.291 46.1559L59.576 50.8709L74.414 65.7089C75.8863 67.1814 75.8863 69.577 74.414 71.0496C72.9415 72.5225 70.5459 72.5221 69.0733 71.0496L54.487 56.4632L54.2353 56.2116L49.5204 60.9266L49.772 61.1782L64.3584 75.7646C65.8309 77.2371 65.8309 79.6329 64.3584 81.1055C62.8858 82.578 60.49 82.578 59.0175 81.1055L59.0146 81.1083C56.3053 78.4891 52.519 77.6267 49.0992 78.5211C48.0105 74.0727 43.5387 70.7048 39.0417 70.8029C38.8237 66.0147 34.7757 61.6894 29.9921 61.1726C30.6233 52.9576 21.601 47.3002 14.4808 51.347C4.5645 42.4892 3.95371 26.9394 13.4319 17.5264C22.8557 8.0366 38.4265 8.6654 47.2806 18.6037L39.0375 26.8468L45.6427 33.4519C50.7164 38.5261 58.5349 39.2242 64.3644 35.547L84.4703 55.6532C85.942 57.1255 85.942 59.5214 84.4697 60.9939ZM90.5587 50.2981L89.5427 51.3139C89.4269 51.1863 89.3076 51.0609 89.1849 50.9383L64.6264 26.3796L62.2688 28.7369C58.985 32.0207 53.6417 32.0212 50.3572 28.7369L48.467 26.8468L57.7874 17.5264C80.4279 -3.312 111.393 27.6723 90.5587 50.2981Z" fill="black"/>
</svg>
