<svg width="96" height="97" viewBox="0 0 96 97" fill="none" xmlns="http://www.w3.org/2000/svg">
<path d="M81.9417 15.0568C72.8757 5.99043 60.8219 0.997681 48.0005 0.997681C35.179 0.997681 23.1256 5.99062 14.0598 15.0568C4.99395 24.1228 0.00100708 36.1766 0.00100708 48.9981C0.00100708 61.8195 4.99376 73.8731 14.0598 82.9391C23.1256 92.0049 35.1792 96.9977 48.0005 96.9977C60.8217 96.9977 72.8755 92.0049 81.9417 82.9389C91.0079 73.8731 96.0006 61.8193 96.0006 48.9979C96.0006 36.1764 91.0079 24.1228 81.9417 15.0568ZM66.6983 14.8177C67.3857 14.1437 68.0843 13.4582 68.735 12.7824C71.4432 14.3391 73.96 16.1921 76.2438 18.2947C76.2325 18.3101 76.2205 18.3276 76.2106 18.3401C75.7966 18.3 75.2376 18.1168 74.6489 17.9235C73.5093 17.5498 72.0903 17.0852 70.4453 17.2168C68.8422 17.3456 67.4971 18.0081 66.4161 18.5402C65.9155 18.7866 65.0838 19.1962 64.7976 19.1977C64.5053 19.0575 63.899 18.2814 63.6578 17.9713C64.4061 17.0659 65.57 15.9246 66.6983 14.8177ZM34.8299 9.38943C35.5746 11.6632 36.4253 13.809 37.2582 15.8509C37.9426 17.5284 38.7183 19.4295 38.5596 20.988C38.4951 21.6201 38.3849 21.9279 38.3303 22.0479C38.0515 22.1374 37.3855 22.1932 36.9306 22.2311C35.5013 22.3504 33.5438 22.5137 31.7324 23.7857C31.3767 24.0352 31.0578 24.2846 30.7489 24.5257C30.2286 24.9321 29.6907 25.3524 29.3524 25.4471C29.0183 25.5407 28.3489 25.4644 27.7021 25.3907C27.2254 25.3365 26.6853 25.2748 26.116 25.2561C24.3706 25.1972 20.1029 25.9399 18.067 28.5988C17.0168 29.97 16.7149 31.6292 17.2169 33.2715C17.5893 34.4893 18.3726 35.3197 19.0135 35.9076C21.8153 38.4763 25.6551 40.2949 29.5488 40.8973C30.0921 40.9815 30.6096 41.0447 31.1101 41.106C33.8116 41.4366 34.573 41.6569 35.2684 42.9101C35.4801 43.2917 35.6693 43.7931 35.8699 44.3242C36.1206 44.9886 36.4049 45.7412 36.8185 46.5C38.1518 48.9452 40.4515 50.3807 42.8155 50.2434C44.575 50.1422 45.829 49.2559 46.7449 48.6088C47.0646 48.3829 47.3954 48.1491 47.5898 48.0681C47.9603 47.9137 48.8513 48.0767 49.934 48.798C50.9907 49.5026 51.7152 50.3224 51.974 51.1063C52.1609 51.6735 52.0383 52.3194 51.7913 52.5281L46.0578 57.4252C44.5842 58.6839 41.8413 61.0267 41.7563 64.563C41.7319 65.5806 41.9286 66.4965 42.1021 67.3046C42.1358 67.4616 42.1765 67.6513 42.2123 67.8345C41.6749 67.9663 41.0183 68.1349 40.3325 68.481C36.8511 70.2386 36.5382 74.2476 36.3513 76.6427C36.2965 77.3426 36.1568 77.886 36.0166 78.2563C35.9388 78.1102 35.8666 77.9368 35.8171 77.7437C35.6826 77.2189 35.6142 76.5836 35.5416 75.9109C35.4233 74.8134 35.2891 73.5696 34.8269 72.2884C34.2318 70.6389 33.2444 69.3426 32.3731 68.1992C31.6144 67.2036 30.9593 66.3435 30.7713 65.5491C30.6301 64.9515 30.6972 64.1066 30.7681 63.2119C30.8759 61.8549 30.9983 60.3167 30.5436 58.6629C29.8969 56.3102 28.3803 54.7189 27.0423 53.3151C26.2853 52.521 25.5704 51.7708 25.1898 51.0441C24.8095 50.3186 24.8371 49.5418 24.9184 48.2314C24.9963 46.9762 25.0932 45.4144 24.5359 43.7816C23.9322 42.0131 22.5621 41.0323 21.6439 40.3747C19.2331 38.6488 16.975 36.6834 14.9324 34.5328C13.9143 33.4607 12.9235 32.3053 12.5704 31.1186C12.4628 30.7569 12.3882 30.4839 12.3301 30.2702C12.118 29.4941 11.9367 29.0092 11.6305 28.5403C16.6823 19.5939 24.9379 12.6876 34.8299 9.38943ZM48.0005 90.7369C24.9856 90.7369 6.26182 72.0127 6.26182 48.9981C6.26182 44.5635 6.95951 40.2892 8.24651 36.2766C8.91476 37.2328 9.66926 38.0829 10.393 38.8447C12.7081 41.2821 15.2673 43.5097 18.0109 45.474C18.2144 45.6197 18.5041 45.8271 18.655 45.9628C18.7581 46.4239 18.7167 47.0878 18.67 47.844C18.5706 49.4466 18.4343 51.6412 19.6446 53.9507C20.4331 55.4552 21.5369 56.6132 22.5108 57.6351C23.4591 58.6301 24.2781 59.4892 24.5071 60.3227C24.6702 60.9167 24.6008 61.7906 24.5271 62.7161C24.4259 63.9907 24.3109 65.4358 24.6786 66.9904C25.1729 69.0797 26.3524 70.6279 27.3931 71.9938C28.0491 72.8548 28.6688 73.6684 28.9377 74.4131C29.1449 74.9878 29.2287 75.7626 29.317 76.5827C29.4057 77.4049 29.5064 78.3367 29.752 79.2964C30.4881 82.1719 32.8748 84.9311 36.0953 84.9309C36.2669 84.9309 36.4414 84.9231 36.6177 84.9069C39.9526 84.6022 42.2425 81.6225 42.5935 77.13C42.6503 76.4029 42.7999 74.4861 43.1708 74.0632C43.2856 74.0175 43.5651 73.9491 43.7725 73.8984C44.6547 73.6824 45.9876 73.3558 47.089 72.2278C49.1176 70.1503 48.5583 67.5457 48.224 65.9897C48.1235 65.5211 48.0093 64.9897 48.0158 64.7128C48.0336 63.9712 49.5526 62.6739 50.1245 62.1855L55.8462 57.2981C58.0739 55.4143 58.9071 52.1374 57.9198 49.1443C57.2148 47.0076 55.6544 45.0862 53.4068 43.5877C50.6339 41.7396 47.6359 41.2657 45.1829 42.2878C44.3487 42.6352 43.6743 43.1119 43.1322 43.4949C42.9681 43.611 42.7519 43.7638 42.5761 43.8754C42.4953 43.7854 42.4021 43.6609 42.3156 43.5022C42.1094 43.1239 41.9241 42.6326 41.7278 42.1125C41.4695 41.4281 41.1766 40.6522 40.7433 39.8713C38.4244 35.6929 34.6366 35.2294 31.8709 34.8911C31.3983 34.8334 30.9516 34.7786 30.5063 34.7098C28.1781 34.3496 25.8096 33.3274 23.9914 31.9207C24.6578 31.6811 25.4723 31.4964 25.9107 31.5135C26.2279 31.524 26.5998 31.5664 26.9939 31.6112C28.1232 31.74 29.5281 31.8999 31.0424 31.4754C32.5711 31.047 33.6981 30.1667 34.6036 29.4594C34.8619 29.2577 35.1059 29.067 35.3309 28.9091C35.7546 28.6117 36.5791 28.5429 37.4519 28.47C39.6256 28.2885 44.1486 27.9111 44.7889 21.6217C45.1058 18.51 43.9692 15.7241 43.0559 13.4856C42.2963 11.6233 41.5593 9.77493 40.9161 7.86224C43.2196 7.46737 45.586 7.25868 48.0008 7.25868C53.1822 7.25868 58.1448 8.21062 62.7267 9.94368C62.5895 10.0787 62.4518 10.2135 62.3148 10.3479C60.9233 11.7126 59.4845 13.1239 58.4943 14.4058C58.0756 14.9479 57.3751 15.8548 57.1685 17.1609C56.8184 19.3768 58.1435 21.0791 58.7093 21.8059C59.5501 22.8864 60.9578 24.6951 63.283 25.275C63.8024 25.4044 64.3038 25.4599 64.7849 25.4599C66.5369 25.4599 68.0271 24.7262 69.1825 24.1571C69.8478 23.8296 70.5357 23.4907 70.9469 23.4577C71.3384 23.4257 72.0295 23.6535 72.6991 23.8729C73.6767 24.1935 74.7846 24.5565 76.0898 24.6039C76.1686 24.6069 76.2464 24.6082 76.3244 24.6082C77.9451 24.6081 79.3842 23.991 80.5248 22.8697C83.2964 26.313 85.5336 30.2029 87.109 34.4137C86.8859 34.4196 86.6586 34.4227 86.4558 34.4252C85.8423 34.4329 85.1466 34.4417 84.389 34.4998C82.6405 34.6342 81.271 34.1267 79.5368 33.4839C78.3462 33.0427 76.9966 32.5425 75.4143 32.2281C71.1501 31.3807 66.7763 33.7054 64.2711 38.1506C63.5416 39.4451 60.0528 46.1102 63.0215 50.1994C64.1345 51.7324 65.6236 52.6251 66.8204 53.3421C68.4261 54.3045 70.0863 55.2996 71.9673 56.0586C72.3678 56.2202 72.7643 56.3666 73.1476 56.508C74.2883 56.9291 75.4681 57.3647 75.89 57.9424C76.1264 58.266 76.3731 58.995 76.205 60.6283C76.0923 61.7209 75.655 62.9132 75.1921 64.1754C74.0517 67.2853 72.4896 71.5449 76.1498 75.7269C76.805 76.4752 77.5443 77.109 78.3468 77.6248C70.7311 85.6929 59.9442 90.7369 48.0005 90.7369ZM80.861 71.6038C79.7886 70.3785 79.9321 69.4342 81.0698 66.3309C81.6181 64.8358 82.2393 63.1416 82.4322 61.2701C82.7352 58.3301 82.2486 56.0334 80.9446 54.2488C79.4082 52.1458 77.1389 51.3079 75.3153 50.6349C74.9592 50.5035 74.623 50.3792 74.309 50.2526C72.8832 49.6774 71.5013 48.8492 70.0383 47.9722C69.2881 47.5226 68.5133 47.0584 68.1327 46.5808C67.9109 45.8117 68.5551 43.3003 69.725 41.2243C70.669 39.5486 72.4161 38.0149 74.1931 38.3687C75.2873 38.5862 76.2942 38.9593 77.3605 39.3546C79.4187 40.1173 81.7512 40.9811 84.8688 40.7422C85.426 40.6993 85.9895 40.6922 86.5341 40.6854C87.308 40.6759 88.0968 40.6656 88.8805 40.5517C89.4436 43.2804 89.7396 46.1051 89.7396 48.9981C89.7398 57.7837 87.0091 65.9421 82.3549 72.6742C81.7955 72.45 81.2898 72.0937 80.861 71.6038Z" fill="black"/>
</svg>
